<svg width="26" height="20" viewBox="0 0 26 20" fill="none" xmlns="http://www.w3.org/2000/svg">
<g clip-path="url(#clip0)">
<path d="M4.67744 19.9006V18.5769C4.67744 18.0694 4.36849 17.7385 3.83894 17.7385C3.57422 17.7385 3.28739 17.8268 3.08879 18.1136C2.93442 17.8709 2.71382 17.7385 2.38286 17.7385C2.16216 17.7385 1.94166 17.8047 1.76507 18.0474V17.7826H1.30176V19.9006H1.76507V18.7313C1.76507 18.3563 1.96367 18.1797 2.27261 18.1797C2.58136 18.1797 2.73593 18.3783 2.73593 18.7313V19.9006H3.19925V18.7313C3.19925 18.3563 3.41975 18.1797 3.70658 18.1797C4.01553 18.1797 4.1699 18.3783 4.1699 18.7313V19.9006H4.67744ZM11.5388 17.7826H10.7888V17.1428H10.3255V17.7826H9.90628V18.2017H10.3254V19.1726C10.3254 19.658 10.524 19.9448 11.0535 19.9448C11.2521 19.9448 11.4726 19.8786 11.6272 19.7904L11.4947 19.3932C11.3624 19.4814 11.208 19.5035 11.0976 19.5035C10.877 19.5035 10.7888 19.3712 10.7888 19.1505V18.2017H11.5388V17.7826ZM15.4661 17.7384C15.2014 17.7384 15.0249 17.8709 14.9145 18.0474V17.7826H14.4512V19.9006H14.9145V18.7093C14.9145 18.3563 15.0689 18.1577 15.3557 18.1577C15.444 18.1577 15.5543 18.1798 15.6426 18.2018L15.7749 17.7606C15.6867 17.7385 15.5543 17.7385 15.4661 17.7385V17.7384ZM9.5312 17.9591C9.3105 17.8046 9.00166 17.7385 8.6707 17.7385C8.14126 17.7385 7.78829 18.0032 7.78829 18.4224C7.78829 18.7755 8.05301 18.974 8.51633 19.0402L8.73693 19.0623C8.97965 19.1064 9.11201 19.1726 9.11201 19.2829C9.11201 19.4373 8.93553 19.5477 8.62658 19.5477C8.31774 19.5477 8.07502 19.4373 7.92055 19.3271L7.69995 19.68C7.94266 19.8565 8.27362 19.9448 8.60447 19.9448C9.22226 19.9448 9.57533 19.658 9.57533 19.2608C9.57533 18.8858 9.28849 18.6872 8.84718 18.621L8.62658 18.5989C8.42799 18.5768 8.27362 18.5328 8.27362 18.4004C8.27362 18.246 8.42799 18.1577 8.6707 18.1577C8.93553 18.1577 9.20025 18.268 9.33261 18.3342L9.5312 17.9591ZM21.8423 17.7385C21.5774 17.7385 21.401 17.8709 21.2906 18.0474V17.7826H20.8273V19.9006H21.2906V18.7093C21.2906 18.3563 21.4451 18.1577 21.7318 18.1577C21.8202 18.1577 21.9305 18.1798 22.0187 18.2018L22.1511 17.7606C22.0629 17.7385 21.9305 17.7385 21.8423 17.7385ZM15.9294 18.8416C15.9294 19.4814 16.3706 19.9448 17.0546 19.9448C17.3635 19.9448 17.5841 19.8786 17.8047 19.7021L17.5841 19.3271C17.4076 19.4594 17.2311 19.5256 17.0325 19.5256C16.6574 19.5256 16.3927 19.2608 16.3927 18.8416C16.3927 18.4446 16.6574 18.1797 17.0325 18.1577C17.2311 18.1577 17.4076 18.2238 17.5841 18.3563L17.8047 17.9812C17.5841 17.8046 17.3635 17.7385 17.0546 17.7385C16.3706 17.7385 15.9294 18.2018 15.9294 18.8416ZM20.2096 18.8416V17.7826H19.7463V18.0474C19.5918 17.8489 19.3712 17.7385 19.0844 17.7385C18.4887 17.7385 18.0254 18.2018 18.0254 18.8416C18.0254 19.4814 18.4887 19.9448 19.0844 19.9448C19.3932 19.9448 19.6139 19.8345 19.7463 19.6359V19.9006H20.2096V18.8416ZM18.5107 18.8416C18.5107 18.4666 18.7534 18.1577 19.1505 18.1577C19.5256 18.1577 19.7904 18.4446 19.7904 18.8416C19.7904 19.2167 19.5256 19.5256 19.1505 19.5256C18.7534 19.5034 18.5107 19.2167 18.5107 18.8416ZM12.973 17.7385C12.3552 17.7385 11.9139 18.1797 11.9139 18.8416C11.9139 19.5035 12.3551 19.9448 12.995 19.9448C13.3039 19.9448 13.6128 19.8565 13.8555 19.658L13.6348 19.3271C13.4583 19.4594 13.2377 19.5477 13.0171 19.5477C12.7303 19.5477 12.4435 19.4153 12.3772 19.0401H13.9438V18.8637C13.9659 18.1797 13.5687 17.7385 12.9729 17.7385H12.973ZM12.973 18.1356C13.2597 18.1356 13.4584 18.3122 13.5025 18.6431H12.3993C12.4435 18.3563 12.6421 18.1356 12.973 18.1356ZM24.4677 18.8416V16.9442H24.0044V18.0474C23.8499 17.8489 23.6293 17.7385 23.3425 17.7385C22.7468 17.7385 22.2835 18.2018 22.2835 18.8416C22.2835 19.4814 22.7468 19.9448 23.3425 19.9448C23.6514 19.9448 23.872 19.8345 24.0044 19.6359V19.9006H24.4677V18.8416ZM22.7689 18.8416C22.7689 18.4666 23.0115 18.1577 23.4087 18.1577C23.7838 18.1577 24.0485 18.4446 24.0485 18.8416C24.0485 19.2167 23.7838 19.5256 23.4087 19.5256C23.0115 19.5034 22.7689 19.2167 22.7689 18.8416ZM7.28075 18.8416V17.7826H6.81744V18.0474C6.66296 17.8489 6.44236 17.7385 6.15553 17.7385C5.55985 17.7385 5.09653 18.2018 5.09653 18.8416C5.09653 19.4814 5.55985 19.9448 6.15553 19.9448C6.46447 19.9448 6.68507 19.8345 6.81744 19.6359V19.9006H7.28075V18.8416ZM5.55985 18.8416C5.55985 18.4666 5.80256 18.1577 6.19965 18.1577C6.57472 18.1577 6.83955 18.4446 6.83955 18.8416C6.83955 19.2167 6.57472 19.5256 6.19965 19.5256C5.80256 19.5034 5.55985 19.2167 5.55985 18.8416Z" fill="black"/>
<path d="M9.37695 1.69883H16.3267V14.1864H9.37695V1.69883Z" fill="#FF5F00"/>
<path d="M9.81799 7.94261C9.81799 5.40543 11.0093 3.15497 12.8405 1.69879C11.4948 0.639799 9.79598 0 7.94271 0C3.55206 0 0 3.55206 0 7.94261C0 12.3331 3.55206 15.8852 7.94261 15.8852C9.79588 15.8852 11.4947 15.2454 12.8405 14.1863C11.0093 12.7523 9.81799 10.4798 9.81799 7.94261Z" fill="#EB001B"/>
<path d="M25.7033 7.94261C25.7033 12.3331 22.1512 15.8852 17.7607 15.8852C15.9074 15.8852 14.2086 15.2454 12.8628 14.1863C14.7161 12.7303 15.8854 10.4798 15.8854 7.94261C15.8854 5.40543 14.6939 3.15497 12.8628 1.69879C14.2085 0.639799 15.9074 0 17.7607 0C22.1512 0 25.7034 3.57417 25.7034 7.94261H25.7033Z" fill="#F79E1B"/>
</g>
<defs>
<clipPath id="clip0">
<rect width="25.7286" height="20" fill="white"/>
</clipPath>
</defs>
</svg>
